<?xml version="1.0" encoding="UTF-8"?><svg id="Layer_2" xmlns="http://www.w3.org/2000/svg" xmlns:xlink="http://www.w3.org/1999/xlink" viewBox="0 0 25 9.24"><defs><style>.cls-1{fill:url(#linear-gradient);}.cls-2{fill:#414042;}.cls-3{fill:url(#linear-gradient-3);}.cls-4{fill:url(#linear-gradient-4);}.cls-5{fill:url(#linear-gradient-2);}</style><linearGradient id="linear-gradient" x1="4.32" y1="8.03" x2="8.9" y2="8.03" gradientTransform="translate(0 10.33) scale(1 -1)" gradientUnits="userSpaceOnUse"><stop offset="0" stop-color="#fff33b"/><stop offset=".04" stop-color="#fee62d"/><stop offset=".12" stop-color="#fdd51b"/><stop offset=".2" stop-color="#fdca0f"/><stop offset=".28" stop-color="#fdc70c"/><stop offset=".67" stop-color="#f3903f"/><stop offset=".89" stop-color="#ed683c"/><stop offset="1" stop-color="#e93e3a"/></linearGradient><linearGradient id="linear-gradient-2" x1=".17" y1="8.27" x2="4.91" y2="8.27" xlink:href="#linear-gradient"/><linearGradient id="linear-gradient-3" x1="0" y1="4.59" x2="2.67" y2="4.59" xlink:href="#linear-gradient"/><linearGradient id="linear-gradient-4" x1="1.56" y1="4.07" x2="9.05" y2="4.07" gradientTransform="translate(0 10.33) scale(1 -1)" gradientUnits="userSpaceOnUse"><stop offset="0" stop-color="#e0e31c"/><stop offset="1" stop-color="#1e562a"/></linearGradient></defs><g id="Layer_2-2"><g><path class="cls-2" d="M24.51,.13c.26,0,.49,.21,.49,.48s-.22,.49-.49,.49-.49-.21-.49-.49,.22-.48,.49-.48Zm0,.9c.22,0,.4-.18,.4-.42s-.17-.41-.4-.41-.4,.18-.4,.41,.17,.42,.4,.42Zm-.19-.7h.22c.13,0,.2,.05,.2,.16,0,.1-.07,.15-.15,.15l.16,.25h-.09l-.15-.24h-.09v.24h-.09V.33Zm.09,.25h.09c.08,0,.15,0,.15-.09,0-.07-.07-.09-.12-.09h-.12v.18Z"/><g><path class="cls-1" d="M8.88,2.74c-.02-.1-.04-.2-.07-.29-.03-.09-.06-.18-.09-.27-.07-.17-.15-.33-.23-.48-.09-.15-.19-.28-.29-.41-.1-.13-.22-.24-.34-.35-.12-.11-.24-.2-.37-.29s-.26-.17-.4-.23c-.14-.07-.28-.13-.43-.18s-.29-.1-.44-.13c-.15-.04-.3-.06-.46-.08-.15-.02-.31-.03-.47-.03s-.32,0-.48,.02c-.16,.01-.33,.04-.49,.07,.21-.04,.38-.04,.54,.01,.15,.04,.28,.13,.38,.25,.05,.06,.1,.13,.14,.22,.04,.08,.08,.18,.11,.29,.03,.11,.06,.23,.07,.37,.02,.14,.03,.29,.04,.46,0,.08,0,.17,0,.27,0,.09,0,.19,0,.3s-.01,.21-.02,.32c0,.11-.02,.23-.04,.36-.01,.12-.03,.25-.05,.38-.02,.13-.04,.27-.07,.41-.02,.14-.05,.28-.08,.43-.03,.15-.06,.3-.09,.45,.14-.03,.28-.05,.41-.08,.14-.03,.28-.06,.41-.09,.14-.03,.27-.06,.39-.09,.13-.03,.25-.06,.38-.09s.24-.07,.35-.1c.11-.03,.22-.07,.32-.1,.1-.04,.2-.07,.29-.11s.17-.07,.25-.11c.16-.08,.29-.15,.41-.23,.11-.08,.2-.17,.27-.26,.07-.09,.11-.18,.14-.28,.02-.1,.02-.2,0-.31h0Z"/><path class="cls-5" d="M4.91,1.29c0-.12-.01-.22-.03-.32-.01-.1-.04-.18-.06-.26-.05-.15-.12-.28-.21-.36s-.2-.15-.32-.17c-.13-.03-.28-.02-.45,.02-.16,.04-.31,.08-.46,.14s-.29,.11-.43,.18-.28,.14-.41,.21c-.13,.08-.26,.16-.38,.25s-.24,.18-.36,.28c-.12,.1-.22,.2-.33,.31-.1,.11-.21,.22-.3,.34-.09,.12-.19,.24-.27,.36s-.17,.25-.24,.39-.14,.27-.2,.41c-.06,.14-.12,.29-.17,.44s-.09,.3-.13,.46c.02-.1,.06-.2,.09-.29,.04-.09,.09-.19,.15-.28,.06-.09,.12-.18,.2-.28,.07-.09,.16-.18,.25-.27,.09-.09,.2-.18,.31-.27,.11-.09,.23-.17,.36-.26,.13-.09,.27-.17,.43-.25,.15-.08,.31-.16,.49-.23,.09-.04,.17-.07,.27-.11,.09-.03,.19-.07,.28-.1,.1-.03,.2-.06,.3-.09s.2-.05,.31-.08c.1-.02,.21-.04,.32-.07,.11-.02,.22-.04,.33-.05,.11-.01,.22-.03,.33-.04,.11,0,.22-.02,.33-.02h0Z"/><path class="cls-3" d="M2.66,8.99c-.12-.03-.22-.08-.33-.15-.11-.07-.21-.17-.3-.28-.1-.12-.19-.25-.27-.4-.09-.15-.16-.32-.23-.5-.04-.09-.07-.18-.1-.28s-.06-.2-.08-.3c-.03-.1-.05-.21-.07-.32-.02-.11-.04-.22-.05-.33-.01-.11-.03-.22-.04-.34,0-.12-.01-.23-.02-.35,0-.12,0-.24,0-.36,0-.12,0-.24,.01-.36,0-.12,.02-.24,.03-.35,.01-.12,.03-.23,.05-.35s.04-.23,.06-.34,.05-.22,.07-.33c.03-.11,.06-.21,.09-.31,.03-.1,.06-.2,.1-.3,.03-.1,.07-.19,.11-.28,.04-.09,.07-.18,.11-.27-.13,.07-.25,.15-.37,.22s-.22,.15-.32,.23c-.1,.08-.19,.16-.28,.23-.09,.08-.16,.16-.23,.24s-.13,.16-.19,.24c-.06,.08-.11,.17-.15,.25s-.08,.17-.11,.25c-.03,.09-.05,.17-.07,.27-.03,.16-.05,.33-.06,.49-.01,.16-.02,.32-.01,.48,0,.16,.02,.31,.04,.47s.05,.31,.09,.46c.04,.15,.08,.3,.13,.44,.05,.15,.12,.28,.18,.42,.07,.14,.15,.27,.23,.4,.09,.13,.18,.25,.28,.37s.22,.23,.34,.33c.12,.11,.25,.2,.39,.29,.14,.09,.29,.17,.46,.23,.16,.07,.33,.12,.52,.17h0Z"/><path class="cls-4" d="M1.56,5.7c0,.11,.01,.22,.02,.33s.02,.21,.04,.32c.01,.11,.03,.21,.05,.31,.02,.1,.04,.2,.06,.3s.05,.2,.07,.29,.06,.18,.09,.27c.06,.17,.13,.34,.21,.49,.08,.15,.16,.29,.25,.42s.18,.23,.28,.33c.1,.09,.2,.17,.31,.23,.11,.06,.22,.1,.34,.12,.11,.02,.21,.04,.33,.05,.11,.01,.22,.02,.33,.02s.23,0,.34,0c.12,0,.23-.02,.35-.04,.12-.02,.24-.04,.36-.07,.12-.03,.24-.06,.36-.1,.12-.04,.24-.09,.36-.14,.12-.05,.24-.11,.36-.17,.12-.06,.24-.13,.36-.2,.12-.07,.23-.15,.35-.23,.12-.08,.22-.17,.33-.26,.11-.09,.22-.19,.32-.29s.2-.21,.3-.32c.09-.11,.19-.22,.27-.34s.17-.23,.25-.35c.08-.12,.15-.24,.22-.37,.07-.12,.13-.25,.18-.37s.11-.25,.15-.38,.08-.25,.12-.38c.03-.12,.06-.25,.08-.38,.02-.12,.04-.25,.05-.37s.02-.24,.02-.36,0-.24-.01-.36c0-.12-.02-.23-.04-.35,.02,.15,.01,.28-.02,.41-.04,.13-.11,.25-.2,.37-.1,.12-.22,.23-.38,.33-.08,.05-.17,.1-.26,.15-.09,.05-.2,.1-.31,.15-.11,.05-.23,.09-.35,.14-.12,.05-.25,.09-.39,.13-.14,.04-.28,.09-.43,.12s-.3,.08-.46,.12c-.16,.04-.32,.07-.48,.11-.16,.03-.32,.07-.48,.09-.16,.03-.32,.06-.48,.08-.16,.02-.31,.05-.46,.07s-.3,.04-.44,.05c-.15,.01-.28,.03-.42,.04-.13,.01-.26,.02-.39,.03-.12,0-.24,.01-.36,.01-.11,0-.22,0-.32,0-.1,0-.2,0-.29-.01-.18-.01-.35-.03-.51-.06h0Z"/></g><g><path class="cls-2" d="M12.26,.13V7.9h-1.75V.13h1.75Z"/><path class="cls-2" d="M20.35,9.23c-1.11-.32-2.03-.67-3.08-1.1-.17-.07-.36-.1-.53-.12-1.76-.12-3.4-1.41-3.4-3.94,0-2.34,1.47-4.08,3.8-4.08s3.67,1.8,3.67,3.92c0,1.76-.82,3.01-1.83,3.47v.05c.59,.17,1.26,.31,1.87,.44l-.49,1.36h0Zm-3.26-2.61c1.19,0,1.87-1.12,1.87-2.64,0-1.42-.67-2.6-1.87-2.6s-1.89,1.16-1.89,2.63,.7,2.6,1.88,2.6h.01Z"/><path class="cls-2" d="M23.64,.13V7.9h-1.75V.13h1.75Z"/></g></g></g></svg>